<svg xmlns="http://www.w3.org/2000/svg" viewBox="0 0 550 320">
  <!-- Titre -->
  <text x="275" y="30" font-family="Arial, sans-serif" font-size="20" font-weight="bold" fill="#2c3e50" text-anchor="middle">Les Hiéroglyphes Égyptiens</text>
  <text x="275" y="50" font-family="Arial, sans-serif" font-size="12" fill="#666" text-anchor="middle">(Égypte, vers -3200)</text>

  <!-- Bandeau de hiéroglyphes stylisés -->
  <g transform="translate(75, 70)">
    <rect x="0" y="0" width="400" height="100" rx="5" fill="#fff9c4" stroke="#ffc107" stroke-width="3"/>

    <!-- Symboles hiéroglyphiques simplifiés -->
    <g transform="translate(20, 15)" font-family="Arial, sans-serif" font-size="40">
      <!-- Œil -->
      <g transform="translate(0, 0)">
        <ellipse cx="25" cy="25" rx="20" ry="12" fill="none" stroke="#333" stroke-width="2"/>
        <circle cx="25" cy="25" r="8" fill="#333"/>
        <path d="M45,25 Q55,35 60,50" stroke="#333" stroke-width="2" fill="none"/>
      </g>

      <!-- Oiseau (ibis) -->
      <g transform="translate(80, 0)">
        <ellipse cx="20" cy="30" rx="15" ry="20" fill="#333"/>
        <circle cx="30" cy="15" r="8" fill="#333"/>
        <path d="M38,15 L50,12" stroke="#333" stroke-width="3"/>
        <line x1="15" y1="50" x2="15" y2="65" stroke="#333" stroke-width="2"/>
        <line x1="25" y1="50" x2="25" y2="65" stroke="#333" stroke-width="2"/>
      </g>

      <!-- Serpent -->
      <g transform="translate(160, 5)">
        <path d="M10,55 Q5,40 15,30 Q25,20 20,10 Q18,5 25,0" stroke="#333" stroke-width="3" fill="none"/>
        <circle cx="25" cy="0" r="4" fill="#333"/>
      </g>

      <!-- Scarabée -->
      <g transform="translate(220, 10)">
        <ellipse cx="25" cy="25" rx="20" ry="15" fill="#333"/>
        <circle cx="25" cy="8" r="8" fill="#333"/>
        <line x1="5" y1="25" x2="0" y2="35" stroke="#333" stroke-width="2"/>
        <line x1="45" y1="25" x2="50" y2="35" stroke="#333" stroke-width="2"/>
        <line x1="10" y1="35" x2="5" y2="50" stroke="#333" stroke-width="2"/>
        <line x1="40" y1="35" x2="45" y2="50" stroke="#333" stroke-width="2"/>
      </g>

      <!-- Main -->
      <g transform="translate(300, 15)">
        <rect x="10" y="20" width="25" height="35" rx="3" fill="#333"/>
        <rect x="10" y="0" width="5" height="25" rx="2" fill="#333"/>
        <rect x="17" y="0" width="5" height="25" rx="2" fill="#333"/>
        <rect x="24" y="0" width="5" height="25" rx="2" fill="#333"/>
        <rect x="31" y="5" width="5" height="20" rx="2" fill="#333"/>
      </g>
    </g>

    <!-- Légendes sous les symboles -->
    <g transform="translate(20, 75)" font-family="Arial, sans-serif" font-size="9" fill="#666">
      <text x="25" y="0" text-anchor="middle">Œil</text>
      <text x="100" y="0" text-anchor="middle">Oiseau</text>
      <text x="180" y="0" text-anchor="middle">Serpent</text>
      <text x="250" y="0" text-anchor="middle">Scarabée</text>
      <text x="330" y="0" text-anchor="middle">Main</text>
    </g>
  </g>

  <!-- Informations -->
  <g transform="translate(75, 190)">
    <rect x="0" y="0" width="190" height="100" rx="8" fill="#e8f5e9" stroke="#4caf50" stroke-width="2"/>
    <text x="95" y="20" font-family="Arial, sans-serif" font-size="12" font-weight="bold" fill="#2e7d32" text-anchor="middle">Caractéristiques</text>
    <text x="95" y="40" font-family="Arial, sans-serif" font-size="10" fill="#333" text-anchor="middle">• Plus de 700 signes</text>
    <text x="95" y="55" font-family="Arial, sans-serif" font-size="10" fill="#333" text-anchor="middle">• Dessins = sons ou idées</text>
    <text x="95" y="70" font-family="Arial, sans-serif" font-size="10" fill="#333" text-anchor="middle">• Réservée aux scribes</text>
    <text x="95" y="85" font-family="Arial, sans-serif" font-size="10" fill="#333" text-anchor="middle">• Très longue à apprendre</text>
  </g>

  <g transform="translate(285, 190)">
    <rect x="0" y="0" width="190" height="100" rx="8" fill="#fff3e0" stroke="#ff9800" stroke-width="2"/>
    <text x="95" y="20" font-family="Arial, sans-serif" font-size="12" font-weight="bold" fill="#e65100" text-anchor="middle">Supports</text>
    <text x="95" y="45" font-family="Arial, sans-serif" font-size="10" fill="#333" text-anchor="middle">📜 Papyrus (plante)</text>
    <text x="95" y="65" font-family="Arial, sans-serif" font-size="10" fill="#333" text-anchor="middle">🪨 Pierre (temples)</text>
    <text x="95" y="85" font-family="Arial, sans-serif" font-size="10" fill="#333" text-anchor="middle">⚱️ Poterie</text>
  </g>
</svg>